<svg xmlns="http://www.w3.org/2000/svg" xmlns:xlink="http://www.w3.org/1999/xlink" viewBox="0 0 1000 999.94"><defs><style>.cls-1{stroke-miterlimit:10;fill:url(#Безымянный_градиент_9);stroke:url(#Безымянный_градиент_5);}.cls-2{fill:#0a1139;}.cls-3{fill:#717171;}.cls-4{fill:#8397b1;}.cls-5{fill:#838aa4;}.cls-6{fill:#86a1bc;}.cls-7{fill:#85aac7;}.cls-8{fill:#06afc1;}.cls-9{fill:#06afc0;}.cls-10{fill:#06aec0;}.cls-11{fill:#e4cd50;}.cls-12{fill:#e4ce50;}.cls-13{fill:#e6cf51;}.cls-14{fill:#e7d151;}.cls-15{fill:#06b0c2;}.cls-16{fill:#e6d051;}.cls-17{fill:#06abbd;}.cls-18{fill:#06abbc;}.cls-19{fill:#06acbe;}.cls-20{fill:#06aabc;}.cls-21{fill:#e8d151;}.cls-22{fill:#06adbf;}.cls-23{fill:#06acbd;}.cls-24{fill:#fdd916;}.cls-25{fill:#0b2537;}.cls-26{fill:#7b6a0a;}.cls-27{fill:#3d3405;}.cls-28{fill:#0a1f2f;}</style><radialGradient id="Безымянный_градиент_9" cx="491" cy="507" r="537.82" gradientTransform="translate(58.89 11.85) scale(0.9 0.95)" gradientUnits="userSpaceOnUse"><stop offset="0" stop-color="#fff"/><stop offset="1" stop-color="#ff1d25"/></radialGradient><radialGradient id="Безымянный_градиент_5" cx="491" cy="507" r="538.32" gradientTransform="translate(58.89 11.85) scale(0.9 0.95)" gradientUnits="userSpaceOnUse"><stop offset="0" stop-color="#fff"/><stop offset="1"/></radialGradient></defs><g id="Слой_2" data-name="Слой 2"><rect class="cls-1" x="0.5" y="0.5" width="999" height="982"/></g><g id="Слой_1" data-name="Слой 1"><path d="M471.47,999.94H0V417.6a3.53,3.53,0,0,1,2.79-1.23c1.34,0,2.68-.05,4-.05h115a9.88,9.88,0,0,0,1.44,0c4.82-.73,7.56,1.72,9.17,5.93a6.65,6.65,0,0,0,.5.86,8.88,8.88,0,0,1,1.1,1.48c3.33,5.62,6.47,11.36,10.14,16.77,2.84,4.8,6,9.4,8.63,14.33,4.37,6.78,8.61,13.64,12.65,20.62.14.19.27.39.4.59a9.25,9.25,0,0,1,.47.88,4.8,4.8,0,0,1,.32.54,3.51,3.51,0,0,1,.33.52,3.77,3.77,0,0,1,.34.54,4,4,0,0,1,.36.55,4.67,4.67,0,0,1,.38.6,3.32,3.32,0,0,1,.36.67,3.06,3.06,0,0,1,.24.78,2.15,2.15,0,0,1-.22,1.25c-.89,1.31-2.28,1.24-3.61,1.27-3,.07-5.94-.08-8.91.08-2.18.13-3.57,3.06-2.42,4.94.43.71,1.12.62,1.78.61,4.88-.1,9.76,0,14.64-.05,1.7,0,2.76-.63,2.85-2.45a14.57,14.57,0,0,0,.44-7.8,18.89,18.89,0,0,1,.15-2.13c.83-4.72.62-9.5,1-14.25.36-4.95.79-5.56,5.75-5.64,3.64-.05,7.23.64,10.87.71,2.5.06,3.57,1.42,3.76,4.15.35,5.18-.59,10.3-.73,15.45-.09,3.6-.91,7.28,1.21,10.62,1.07.87,2.35.73,3.58.73,16,0,32,.06,48,0,3.34,0,6.66-.7,10-.54,3.93.19,5.23,1.06,6.47,4.82a10.39,10.39,0,0,0,1.27,2.87c3.58,9.46,7.55,18.78,11.28,28.2.77,1.94,1.18,4,2.4,5.79a15.75,15.75,0,0,1,.78,1.85c.89,2.83,0,4.22-3,4.45-1.62.12-3.25.08-4.88.08-2.15,0-3.16,1.1-3.24,3.17-.2,5.25-.59,10.49-1.1,15.72-.17,1.78.68,2.71,2.49,2.72q9.62.1,19.24,0c1.57,0,2.63-.61,2.45-2.4-.75-7.61-1.1-15.25-2-22.84.86-3.56-.55-7-.76-10.47-.41-6.93-1.23-13.85-1.63-20.79,0-1-.38-1.87-.47-2.82-.05-.67.12-1.33.12-2,0-2.6-.33-2.68-3-2.39-7.09.76-8.08.07-6.25-6.53.59-2.11,1.22-4.21,1.73-6.34a15.19,15.19,0,0,1,.69-2.17,5.92,5.92,0,0,1,.37-.81c1.71-7.72,4-15.3,6-22.94,1.4-4.82,2.64-9.69,3.92-14.54.18-.7.46-1.37.68-2.06a3.93,3.93,0,0,1,.36-.78c1-4.86,2.48-9.6,3.66-14.41,1.39-3.78,2-7.79,3.23-11.6.21-.63.35-1.29.6-1.92.37-.93.83-1.85,1.92-1.9s1.64.89,2.06,1.75c2.27,4.75,4.21,9.65,6.1,14.56,3.32,7.31,6.42,14.73,9.54,22.12a7,7,0,0,1,.25.73c.09.35.27.67.39,1a3.51,3.51,0,0,1,.24.64c.13.32.25.64.37.95a3.08,3.08,0,0,1,.21.65c.24.55.53,1.07.8,1.59,1.88,4.42,3.92,8.77,5.62,13.26l.3.66c.14.43.26.86.44,1.28a3.72,3.72,0,0,1,.24.58c.12.28.23.57.35.85a2.77,2.77,0,0,1,.26.55c.15.28.28.57.42.86a3.38,3.38,0,0,1,.23.63c.28.54.58,1.06.85,1.6,1.91,4.37,3.89,8.7,5.56,13.17,1.12,3,.65,4-2.33,4.78a24.66,24.66,0,0,1-4.28.37c-1.32.14-2.21.65-2,2.17.63,4.81.13,9.73,1.32,14.49.14,4.49.59,9,.94,13.42a3.72,3.72,0,0,1,.25,1.48c-.49,2,.11,3.84.52,5.72-.1,3.93.65,7.8.78,11.72.12,3.24,1.27,4.17,4.4,3.56,2.82-.55,5.76,0,8.5-1,2.59-.39,2.59-2.5,2.7-4.34.16-2.74,0-5.5.05-8.24a10.17,10.17,0,0,1,.22-3.11,2.09,2.09,0,0,1,.59-.73c2.89-.81,5.85-.2,8.76-.38,1.23-.07,2.46,0,3.7-.16,2.05-.32,3.11-1.28,2.56-3.48a5.24,5.24,0,0,1,.07-1.48c-.47-5.06-.61-10.15-1.3-15.19.64-3.95-.82-7.78-.73-11.71,0-1.58-1.16-2.05-2.56-2.11-2-.08-4,0-6-.09-2.28-.08-3.71-.94-3.35-3.53a7.05,7.05,0,0,1,.86-2.11c.1-.26.22-.52.34-.77,1.63-4.55,3.56-9,5.3-13.48.18-.46.4-.9.61-1.35a5.24,5.24,0,0,1,.27-.65c.12-.33.25-.65.38-1a3.94,3.94,0,0,1,.25-.68,8.23,8.23,0,0,1,.47-1l.42-.64c1.63-4.92,3.76-9.64,5.62-14.47.27-.59.57-1.15.79-1.76a4.42,4.42,0,0,1,.22-.79,6.67,6.67,0,0,1,.49-1.21,8.77,8.77,0,0,0,.45-.86c.28-.82.45-1.67.75-2.48,1.42-3.93,2.33-4.66,6.47-4.66,11.56,0,23.13-.16,34.69.08,9.42,1.73,18.93.65,28.39.79,3.61.06,4.93-1.42,5.07-5.15a104.32,104.32,0,0,0-.17-13.23,105.05,105.05,0,0,1-.1-11.5,3.56,3.56,0,0,1,3.12-3.85c4.82-.93,9.72-.63,14.58-1,1.72-.13,2.73,1.09,3.12,2.81a22.59,22.59,0,0,1,.6,6.85,10.66,10.66,0,0,0,.49,4.24c0,.71.18,1.42.18,2.14-.74,2.71-.27,5.36.4,8-.07,3.05-.74,6.14.68,9.07.65,1.47,2,1.28,3.21,1.3a149.41,149.41,0,0,1,15.1.54c2.4.29,4.14,1.07,5.32,3.2,1.76,3.15,3.81,6.14,5.32,9.43a7.21,7.21,0,0,0,.51.72,4.16,4.16,0,0,1,.79,1c3.44,6.47,7.37,12.66,11,19,2.51,3.93,4.85,8,7.12,12,1.83,3.3,1,4.74-2.82,4.86-2.57.08-5.14.05-7.71,0-1.68,0-2.72.62-3,2.33a6.57,6.57,0,0,0-.12.89,14.5,14.5,0,0,0-.27,4.05c-.83,6.08-1.64,12.16-2.37,18.25a3.86,3.86,0,0,1,0,1c-.19,1.34-.74,2.64-.57,4-.48,2-.16,3.3,2.32,3.44,1.88.11,2.85,1.42,2.94,3.28a35.47,35.47,0,0,1-.06,6,7.52,7.52,0,0,0-.2,1.7c.13,1.19-.09,2.93,1.33,3.11s1.28-1.58,1.65-2.6a2.93,2.93,0,0,1,.83-1.11c1.45-1.06,2.66-.59,3.75.59.5.53.46,1.31.84,1.94a5.32,5.32,0,0,1,1.19-2.16,2.16,2.16,0,0,1,3.22-.34,2.74,2.74,0,0,1,.71.89c.66,1.89,1.09,4.39,3.27.9a1.68,1.68,0,0,1,1.84-.53c.94.19,5.33,4.61,5.46,5.54a3.08,3.08,0,0,1-1.33,3c-1.26,1-1.5,1.65.2,2.37a3.05,3.05,0,0,1,1.91,3.24,2.94,2.94,0,0,1-2.38,2.88c-1.31.34-2.07,1-1.83,2.44s1.55,1.47,2.69,1.53c3.16.16,6.33-.24,9.48.28,10.9,7,21.22,14.65,29.72,24.52,2.69,3.13,5,6.52,5.94,10.68,1.54,4.23.71,8.16-1.57,11.89a32.68,32.68,0,0,1-8.46,8.61c-.34.24-.74.36-1.09.59s-.43.33-.64.51c-5.3,3.93-11.23,6.74-17.15,9.55-6.77,3.47-13.82,6.25-20.86,9.07a6.36,6.36,0,0,0-2,.58c-.25.11-.5.23-.74.36-6,2.77-12.32,4.8-18.48,7.2-.47.18-1,.33-1.43.5a3.78,3.78,0,0,1-.67.23c-.32.12-.65.2-1,.3a3.55,3.55,0,0,1-.64.17,6,6,0,0,0-1.24.42,2.47,2.47,0,0,1-.66.17,5.89,5.89,0,0,0-1.33.54l-.69.4c-8.07,3.18-16.22,6.14-24.46,8.82-3.42,1.58-7,2.64-10.54,4a16.37,16.37,0,0,0-1.82.51,3.63,3.63,0,0,1-.69.21c-.32.12-.65.23-1,.36a3.45,3.45,0,0,1-.63.25c-.31.14-.62.25-.93.37a5.41,5.41,0,0,1-.63.24c-.32.12-.64.22-1,.32a3.32,3.32,0,0,1-.68.15,4.35,4.35,0,0,0-1.33.57,2.77,2.77,0,0,1-.7.37c-6.6,2.45-13.2,4.91-19.88,7.12-4,1.77-8.13,3-12.13,4.64a8.83,8.83,0,0,1-1.1.36,3.43,3.43,0,0,1-.7.18,4.72,4.72,0,0,0-1.28.38,3.51,3.51,0,0,1-.6.26l-.9.36a4.24,4.24,0,0,1-.59.23l-.89.34a4.41,4.41,0,0,1-.59.26c-.3.14-.61.26-.92.38a3.87,3.87,0,0,1-.67.17,5,5,0,0,0-1,.47,4.53,4.53,0,0,1-.66.41c-5.37,2.15-10.6,4.63-15.9,6.94-2.71,1.47-5.47,2.86-8.14,4.41-.4.22-.83.39-1.24.59a5.93,5.93,0,0,1-.56.29c-.17.1-.35.19-.53.28a4.21,4.21,0,0,1-.51.29,4.07,4.07,0,0,1-.49.31,3.53,3.53,0,0,1-.5.28,3,3,0,0,1-.49.28,2.87,2.87,0,0,1-.48.28c-.15.1-.31.18-.47.27a4.34,4.34,0,0,1-.46.28,3,3,0,0,1-.45.28,2.6,2.6,0,0,1-.45.28l-.44.29a3.23,3.23,0,0,1-.43.29,3.23,3.23,0,0,1-.43.29,3,3,0,0,1-.44.28l-.43.29a4,4,0,0,1-.43.29,2.09,2.09,0,0,1-.44.29,2.49,2.49,0,0,1-.43.29l-.43.28a2.55,2.55,0,0,1-.43.3,2.44,2.44,0,0,1-.43.28,2,2,0,0,1-.43.29l-.43.28a2.1,2.1,0,0,1-.41.31,3.12,3.12,0,0,1-.4.32s-.21.16-.2.17a3.12,3.12,0,0,1-.41.33,2.55,2.55,0,0,1-.43.3l-.43.31a2.45,2.45,0,0,1-.41.31c-.13.13-.27.24-.4.35s-.21.18-.2.19a3.87,3.87,0,0,1-.4.41c-.06.08-.14.15-.2.23a3.81,3.81,0,0,1-.44.46,2.72,2.72,0,0,1-.24.24,3,3,0,0,1-.54.47,4.6,4.6,0,0,1-.63.42c-5.78,5.49-10.63,11.6-11.42,19.85-.45,4.67,1.15,9,3.61,13a44.08,44.08,0,0,0,7.14,8.9c2.75,3.22,6.26,5.55,9.61,8a142.29,142.29,0,0,0,15,9.5c.33.16.64.36.95.55a5.25,5.25,0,0,1,.58.38,3.7,3.7,0,0,1,.53.38l.25.19c.25.17.5.36.77.51a5.61,5.61,0,0,1,.54.29c.19.08.37.18.55.27a4.87,4.87,0,0,1,.56.28,4.23,4.23,0,0,1,.57.27,6,6,0,0,1,.57.28,5,5,0,0,1,.57.28,4.48,4.48,0,0,1,.58.29,6,6,0,0,1,.57.28,6.27,6.27,0,0,1,.58.29,6.1,6.1,0,0,1,.57.29,4.48,4.48,0,0,1,.58.29,6,6,0,0,1,.57.28,6.27,6.27,0,0,1,.58.29,5.07,5.07,0,0,1,.57.29,3.92,3.92,0,0,1,.58.29,4.48,4.48,0,0,1,.58.29,4,4,0,0,1,.59.29,6.54,6.54,0,0,1,.6.28,6.09,6.09,0,0,1,.63.3,10.16,10.16,0,0,1,1,.48c.23.14.45.29.67.45,15.72,6.79,31.45,13.56,47.61,19.23,5.69,2,11.34,4.09,17.06,6,1.6,1.2,3.61,1.17,5.4,1.79,15.57,5.41,31.48,9.8,46.94,15.49,10.39,3.82,20.16,8.91,28.66,16.17a58.65,58.65,0,0,1,12.57,13.92c3.91,6,7,12.46,7.9,19.75,2,6.3,1.58,12.76,1.18,19.2a32.91,32.91,0,0,1-1,6.74c-.09.91-.47,1.75-.63,2.64a5,5,0,0,1-.16.84c-.18.67-.37,1.33-.52,2a3.31,3.31,0,0,1-.28.8,113.4,113.4,0,0,1-12.48,29.67c-3.2,4.88-6.11,10-9.57,14.68-2.43,3.33-5,6.55-7.51,9.82a3.66,3.66,0,0,1-.46.58,3.39,3.39,0,0,1-.49.51,4.16,4.16,0,0,1-.48.46l-.24.21a5.74,5.74,0,0,1-.45.41l-.22.21c-.12.14-.27.27-.41.41s-.2.2-.19.21a3.57,3.57,0,0,1-.36.43s-.18.21-.17.22a4,4,0,0,1-.34.47,3.19,3.19,0,0,1-.35.47,4.25,4.25,0,0,1-.37.47c-.07.08-.14.15-.2.23a3.63,3.63,0,0,1-.41.47c-.06.08-.14.16-.21.24a4.14,4.14,0,0,1-.44.5l-.25.23-.54.48-.26.26c-4.48,6-10.11,10.93-15.51,16-2.28,2.16-4.57,4.34-7.06,6.28a4.28,4.28,0,0,1-.55.49l-.28.22a4.29,4.29,0,0,1-.55.4,3.84,3.84,0,0,1-.54.35,4.46,4.46,0,0,1-.52.31c-.15.12-.31.21-.47.32a3.72,3.72,0,0,1-.45.33s-.22.17-.21.18a2.52,2.52,0,0,1-.41.39s-.21.19-.2.2a3.33,3.33,0,0,1-.42.42c-.07.08-.15.14-.22.21a3.07,3.07,0,0,1-.48.41,4.7,4.7,0,0,1-.53.38,3.63,3.63,0,0,0-.75.66,2.73,2.73,0,0,1-.54.48c-.19.17-.38.32-.58.48l-.28.27a245.61,245.61,0,0,1-21.39,15C474.55,999.09,472.84,999,471.47,999.94Z"/><path d="M999.36,999.94H983.82a3.82,3.82,0,0,1-1.23-2.48c-.63-5.2-2.57-10.06-4-15.05a3.45,3.45,0,0,1-.38-.74c-.15-.36-.25-.74-.37-1.11a6.44,6.44,0,0,1-.24-.7c-.14-.34-.26-.68-.39-1a4.15,4.15,0,0,1-.28-.69c-.19-.46-.39-.93-.59-1.39-3-7.49-6.52-14.74-10.09-22a6.49,6.49,0,0,1-.41-.61c-.16-.3-.36-.59-.49-.9a5.12,5.12,0,0,1-.28-.58,3.93,3.93,0,0,1-.24-.56,3.7,3.7,0,0,1-.24-.54,8.1,8.1,0,0,0-.39-.78,4.91,4.91,0,0,1-.28-.5c-.11-.17-.19-.34-.28-.51a4.91,4.91,0,0,1-.28-.5,4,4,0,0,1-.29-.49,3.66,3.66,0,0,1-.31-.49,3.3,3.3,0,0,1-.31-.51,3.4,3.4,0,0,1-.31-.52,4.07,4.07,0,0,1-.31-.53,5.57,5.57,0,0,1-.33-.57c-.24-.4-.5-.78-.75-1.18-4.48-7.56-9.1-15-14-22.28-6.24-9.34-13-18.27-20.14-26.94a38.44,38.44,0,0,1-2.51-3.49,5,5,0,0,0-.55-.46,3.11,3.11,0,0,1-.49-.47l-.22-.24a3.13,3.13,0,0,1-.41-.49l-.2-.25a3.5,3.5,0,0,1-.37-.49,3.43,3.43,0,0,1-.36-.49c-.2-.24-.4-.48-.62-.7a5.45,5.45,0,0,1-.5-.46,5.13,5.13,0,0,1-.53-.51c-8.15-9.89-17.64-18.51-26.42-27.79a420.78,420.78,0,0,0-38-31.73c-.46-.34-.8-.81-1.25-1.17-.21-.11-.43-.23-.65-.32a4,4,0,0,1-.6-.36c-.1-.06-.19-.14-.28-.2a4,4,0,0,1-.53-.39,3.83,3.83,0,0,1-.51-.39,3.56,3.56,0,0,1-.48-.39c-.09-.06-.16-.13-.24-.19a4.54,4.54,0,0,1-.48-.39l-.24-.18c-.17-.11-.33-.23-.5-.36a4.23,4.23,0,0,1-.53-.33,6.26,6.26,0,0,1-.55-.34c-.11-.06-.19-.13-.3-.18-.41-.25-.83-.48-1.25-.72-15.68-11-32.35-20.4-49.32-29.24a3.43,3.43,0,0,0-.82-.27c-6.65-2.7-13-5.94-19.66-8.71a375.06,375.06,0,0,0-45.45-15.87,26.49,26.49,0,0,1-3.27-1l-.76-.27a6.88,6.88,0,0,0-1.79-.55,4.41,4.41,0,0,1-.72-.08,12.23,12.23,0,0,1-1.33-.45,3.84,3.84,0,0,1-.67-.16,7.4,7.4,0,0,0-1.6-.49,3,3,0,0,1-.67-.11,9.32,9.32,0,0,0-1.62-.46,3.11,3.11,0,0,1-.68-.11A9.74,9.74,0,0,0,717,764a2.53,2.53,0,0,1-.67-.1,6.15,6.15,0,0,0-2-.42,3.26,3.26,0,0,1-.69-.09A12.46,12.46,0,0,0,712,763a4.13,4.13,0,0,1-.7-.14,8.29,8.29,0,0,0-2-.47,3.47,3.47,0,0,1-.71-.1,16.63,16.63,0,0,0-1.72-.43,3.31,3.31,0,0,1-.71-.14,8.31,8.31,0,0,0-2.09-.46,3,3,0,0,1-.73-.1,11,11,0,0,0-2.12-.47,3,3,0,0,1-.74-.1,11.14,11.14,0,0,0-2.15-.47,3.22,3.22,0,0,1-.75-.1,10,10,0,0,0-2.17-.46,3.23,3.23,0,0,1-.76-.1A9.15,9.15,0,0,0,692,759a2.86,2.86,0,0,1-.77-.06,11.41,11.41,0,0,0-2.25-.4,5.07,5.07,0,0,1-1.17-.15,11.11,11.11,0,0,0-2.29-.41,6.06,6.06,0,0,1-1.2-.15,10.13,10.13,0,0,0-2.73-.51,3.83,3.83,0,0,1-.83-.07,9.06,9.06,0,0,0-3.26-.48,3.77,3.77,0,0,1-.89,0,11,11,0,0,0-3.56-.4c-8.6-1.29-17.24-2.19-25.84-3.38-18.55-2.57-37-5.64-55.33-9.52a39.4,39.4,0,0,1-3.84-1.15c-17.11-3.54-33.82-8.34-49.55-16.12a54.67,54.67,0,0,1-12.17-8.1c-5.51-4.92-8.77-10.83-7.38-18.54.82-5.7,4-10,8.08-13.8a18,18,0,0,0,3-3.09c2.09-2.36,4.83-3.94,7.24-5.93a153.56,153.56,0,0,1,26-15.26,3.35,3.35,0,0,1,.64-.48c.47-.28,1-.53,1.43-.78,4.24-2.28,8.77-4,13-6.17,6.5-2.8,13-5.7,19.71-7.89a6,6,0,0,0,1.52-.8c8.51-3.21,16.94-6.63,25.72-9.06a23.32,23.32,0,0,0,2.89-1.25c6.21-1.71,11.74-4.84,17.12-8.28a4,4,0,0,0,1-1.35c2.7-2.56,4.14-5.85,5.32-9.28.56-1.63-.05-3.18-.46-4.74-.5-1.8-.48-3.76-1.64-5.36a45.6,45.6,0,0,0-7.84-11c-10.39-10-22.57-17.4-35.38-23.79-5.57-2.77-11.28-5.25-17.08-7.54-1.84-.72-3.88-1.17-5.21-2.87a2.38,2.38,0,0,1-.35-.8,9,9,0,0,1-.13-1.27c.1-1.57,0-2.82-1.83-3.68-2.71-1.24-2.72-4.37-.08-5.8,1.74-.94,2.43-1.61.33-2.84-.33-.19,0,.11-.24-.15-1.48-1.36-1.55-2.9-.19-4.19,5.13-4.82,5.24-4.9,6.91-2.74,1.44,1.85,1.83,1.05,2.16-.59a4.16,4.16,0,0,1,1.19-2.24,2,2,0,0,1,2.41-.16c1.13.6.87,2.15,1.92,2.76.84-3.35-.09-6.66,0-10,0-1.63-1.33-1.89-2.66-1.91-3.14-.06-6.28,0-9.42,0-5-.06-5.71-.95-4.41-5.82a7.2,7.2,0,0,1,.48-1.66,4.24,4.24,0,0,1,.3-.77,14.63,14.63,0,0,0,.75-1.83q.15-.37.33-.75c1.58-6.45,3.9-12.68,5.72-19.06a20.83,20.83,0,0,1,.82-2l.24-.84c1.38-5.86,3.6-11.46,5.25-17.23a5.13,5.13,0,0,1,2.68-3.54c3.9-.63,7.83-.27,11.74-.32,6.13-.07,12.25,0,18.38,0,2.29,0,3.32-1,3.3-3.28,0-4.69.77-9.34.73-14a23,23,0,0,0,.54-2.52c.28-3.58,1-4.19,4.63-4.32,1.05,0,2.11,0,3.16,0,5.16,0,5.42.26,6.61,5.5.22,4.46.23,8.94,1.14,13.35.25,5.36.25,5.36,5.52,5.37,10.45,0,20.9.08,31.35-.05,3.4,0,5.38,1.26,6.47,4.43,1.49,4.35,3,8.7,4.59,13,.94,2.47,1.4,2.6,3.31.75,3.3-3.2,6.24-6.75,9.36-10.13a7.81,7.81,0,0,1,6.23-2.84q12.94,0,25.89,0c3.27,0,4.4.21,4.74-4,.16-2,.25-4,.44-6,.78-2.69.55-5.5,1.09-8.22.49-2.42,1.48-3.21,3.95-3.15a42.52,42.52,0,0,1,6,.83,3.83,3.83,0,0,1,3.43,4c.07,1.63-.1,3.25-.11,4.88a7.82,7.82,0,0,1,0,2.05c-.67,2.94-1.25,5.89-.58,8.92-.75,4.57,3.12,6.23,5.54,8.81l.56.47c.19.14.37.29.55.44a2.73,2.73,0,0,0,.25.23,5.32,5.32,0,0,1,.48.47c.08.08.15.17.23.24s.31.3.47.46l.24.22a4.43,4.43,0,0,1,.49.48c.08.08.15.18.23.26.56.49,1.28.71,1.86,1.16,4.91,4.52,10,8.88,15.54,13.63,0-4.76.06-9-.08-13.21,0-1.56-1.16-1.8-2.4-1.82-3,0-5.92,0-8.88,0-1.23,0-2.51.1-3.56-.77-1.12-1.38-.36-2.72.19-4,1.23-2.88,2.9-5.53,4.39-8.27.22-.46.5-.88.75-1.32a4.59,4.59,0,0,1,.33-.62,5.7,5.7,0,0,1,.32-.6,5.49,5.49,0,0,1,.31-.59c.09-.2.2-.39.3-.58a6.1,6.1,0,0,1,.29-.57,5.93,5.93,0,0,1,.29-.56,3.71,3.71,0,0,1,.29-.56,4.21,4.21,0,0,1,.3-.55,3.71,3.71,0,0,1,.33-.54,4.45,4.45,0,0,1,.33-.55c0-.09.12-.18.17-.27l.48-.89a2.9,2.9,0,0,1,.41-.62,95.66,95.66,0,0,1,5.53-10.87c.23-.42.5-.83.73-1.25a5,5,0,0,1,.31-.61,5984716860578.65,5984716860578.65,0,0,1,.62-1.18,4.68,4.68,0,0,1,.3-.59,4.43,4.43,0,0,1,.3-.62,10.66,10.66,0,0,1,.47-1c.14-.23.28-.44.41-.67,2.64-5.2,5.18-10.45,8.13-15.48a4.34,4.34,0,0,1,1.54-1.67c1.36-.72,2.82-.44,4.24-.45,5.18,0,10.36,0,15.54,0a9.41,9.41,0,0,0,5.48-1.37,2.23,2.23,0,0,0,.73-1.7c.21-6.79.63-13.56,1-20.34a9.26,9.26,0,0,0,.07-1.05c.35-2.16,0-4.66,1.32-6.35,1.4-1.85,4-.53,6-.95a14.48,14.48,0,0,1,2-.32,8.83,8.83,0,0,1,2.17.21c2.92.71,3.05,3.16,3.41,5.48,0,.88-.14,1.74-.15,2.62-.66,2.75-1.23,5.51-.47,8.34-.94,4.09-.2,8.31-1,12.42-.31,1.68.8,2.36,2.21,2.74,1.77.47,3.59.13,5.38.32a2.54,2.54,0,0,1,.89.26,4,4,0,0,1,1.26,1.31c2,4.92,4.35,9.7,5.93,14.78.12.21.24.43.34.65a10.38,10.38,0,0,1,.4,1,4.14,4.14,0,0,1,.26.61l.39.9a2.87,2.87,0,0,1,.22.62c.16.3.31.6.46.91a5.41,5.41,0,0,1,.33.63c.24.45.48.9.69,1.36,1.86,4.51,3.75,9,5.61,13.51,1,2.35,1.29,2.4,3.13.68a9.53,9.53,0,0,0,1.41-1.43c4.17-6,10.18-6.34,16.6-5.35.1,0,.19,0,.28.06,5.63.93,6.09.57,6.31-5a14,14,0,0,1,.12-1.44,25.39,25.39,0,0,0,.45-9.71,38,38,0,0,1-.1-5.75c.07-4.91,1.12-6,6.13-6.17.58,0,1.15,0,1.72-.07,5-.34,5.47.15,5.64,5.33.13,4.23-.41,8.42-.45,12.64a28.42,28.42,0,0,0,.81,7.69c0,2.14,1.14,2.76,3.12,2.69,5.17-.17,10.3.9,15.49.6a5.56,5.56,0,0,1,4.26,1.41c1.31,1.21,2.27.87,3.41-.26,3.52-3.53,7-7.08,10.56-10.6a4.07,4.07,0,0,1,.53-.57l.28-.24a4.79,4.79,0,0,1,.55-.46l.27-.21a5.27,5.27,0,0,1,.51-.43,2.41,2.41,0,0,0,.24-.21c.15-.16.31-.3.47-.44l.23-.23c.14-.18.3-.33.45-.49s.15-.17.22-.27a6.3,6.3,0,0,1,.48-.55l.27-.28a3.39,3.39,0,0,1,.64-.49l.32-.28a9.53,9.53,0,0,1,9.23-4.53c4.67.27,9.36,0,14,.08a3.77,3.77,0,0,0,4.07-2.83c.87-2.43,1.9-4.8,2.86-7.19.18-.53.42-1,.64-1.56a4.93,4.93,0,0,1,.31-.75c.16-.38.34-.74.53-1.1a3.55,3.55,0,0,1,.41-.71c2.13-5.41,4.22-10.84,6.46-16.21,2.64-6.1,4.92-12.34,7.49-18.46,1.54-3.05,2.41-6.37,3.83-9.47a4.94,4.94,0,0,1,2-2.67c.87-.45,1.2,0,1.18.87q0,305.45,0,610.86C999.63,997.67,999.92,998.84,999.36,999.94Z"/><path class="cls-2" d="M979.23,981.46a61.93,61.93,0,0,1,4,12.22,20.63,20.63,0,0,1,.6,6.26H471.47a3.42,3.42,0,0,1,1.48-1.31c3.15-2,6.36-3.89,9.43-6,4.25-2.93,8.39-6,12.58-9,.77-.55,1.59-1,2.39-1.56,2.68.34,5.34-.15,8-.15q232.64.06,465.26,0A38.69,38.69,0,0,0,979.23,981.46Z"/><path class="cls-3" d="M999.36,999.94V389.27c0-1.54,0-3.07-.06-4.61a1.31,1.31,0,0,1-.11-1.58.55.55,0,0,1,.75,0v616.9Z"/><path class="cls-4" d="M999.27,104.83l.18-.56c.15-.41.32-.41.49,0v105.4a1.16,1.16,0,0,1-1-.34,4,4,0,0,1-.78-3c0-6.21-.2-12.42.11-18.62q-.39-13.5,0-27-.37-10.38,0-20.76c-.25-7.86-.27-15.72,0-23.58-.19-2.74-.18-5.48-.13-8.22A4.17,4.17,0,0,1,999.27,104.83Z"/><path class="cls-5" d="M999.94,104.26h-.49c0-2.24-.06-4.49-.1-6.73,0-1-.06-2.05-.09-3.08.14-6.14.17-12.29,0-18.43.15-7.11.17-14.21,0-21.31q0-9.26.09-18.5c0-1.71-.06-3.41-.09-5.12.15-7.3.18-14.59,0-21.89L999.36,0h.58V104.26Z"/><path class="cls-6" d="M999.45,209.7l.49,0v89.28a.81.81,0,0,1-1-.17c-1.46-2.19-.61-4.61-.69-6.93-.28-6.09-.25-12.18,0-18.26q-.37-11.22,0-22.42c-.24-8.41-.28-16.82,0-25.23-.26-4.15-.16-8.31-.12-12.47,0-1.21-.13-2.49.85-3.48Z"/><path class="cls-7" d="M999.45,299a4,4,0,0,0,.49,0V383a.7.7,0,0,0-.49-.09c-1.55-.87-1.25-2.4-1.33-3.78a43.77,43.77,0,0,1,.12-5.37q-.37-9.19,0-18.39-.36-8.66,0-17.3-.37-11,0-21.9c-.28-4.57-.16-9.15-.12-13.73C998.14,301.18,998,299.74,999.45,299Z"/><path class="cls-8" d="M311.83,503.92c.17,2,.33,4,.51,6a1,1,0,0,1-.93,1.19c-1,.14-1.9.24-2.85.32-1.9.18-3.81.35-5.71.49-1.3.09-1.57-.12-1.68-1.34-.23-2.58-.43-5.15-.64-7.72-.15-1.72-.3-3.44-.44-5.15-.06-.66.19-1.15.89-1.21q4.57-.4,9.15-.75a1,1,0,0,1,1.12,1c.2,2.38.37,4.76.56,7.15Z"/><path class="cls-8" d="M307.59,536.28c-1,.1-2.08.22-3.13.31-.71.07-1-.3-1.12-1-.16-1.52-.33-3-.46-4.56-.24-2.76-.47-5.52-.65-8.28-.08-1.39,0-1.51,1.32-1.65,2.85-.3,5.7-.53,8.55-.8.72-.06,1,.32,1.12,1,.14,1.14.29,2.28.38,3.42.26,3.14.52,6.28.73,9.42.09,1.38,0,1.51-1.32,1.67-1.8.21-3.6.36-5.41.54Z"/><path class="cls-9" d="M133.62,454.85a2,2,0,0,1,.46,1.64q0,7.31,0,14.62c0,.38,0,.76,0,1.14-.06.94-.29,1.21-1.19,1.24-1.15.05-2.29,0-3.44,0-1.91,0-3.82,0-5.73,0-1.16,0-1.31-.33-.7-1.42.52-.91,1.07-1.81,1.62-2.7l7.92-13C132.85,455.94,133.19,455.49,133.62,454.85Z"/><path class="cls-10" d="M136.44,455.07a1.48,1.48,0,0,1,1.27,1l9.59,15.63c.15.25.29.49.42.75.28.55.09,1-.46,1-3.24,0-6.49,0-9.74,0a1,1,0,0,1-1.07-1.06c0-.1,0-.19,0-.29Z"/><path class="cls-10" d="M394.32,503.92c0,1.34,0,2.68,0,4,0,.63-.24,1.17-.95,1.19-2.49.06-5,.09-7.47.12a1,1,0,0,1-1-1.11c-.09-2.87-.17-5.75-.22-8.62a.87.87,0,0,1,.89-.93c2.58-.09,5.16-.18,7.74-.23a.87.87,0,0,1,.86,1c0,1.53,0,3.06,0,4.6Z"/><path class="cls-8" d="M373,504.17c0-1.24,0-2.49,0-3.73s.18-1.57,1.41-1.62c2.3-.07,4.59-.1,6.89-.14a1,1,0,0,1,1.11,1c.1,2.87.2,5.73.29,8.6a1,1,0,0,1-1.07,1.09c-2.48.1-5,.18-7.45.22-.69,0-1-.49-1-1.13,0-1.44,0-2.87,0-4.31Z"/><path class="cls-9" d="M373.39,516.89c-.05-1.24-.13-2.48-.15-3.72s.18-1.59,1.38-1.62c2.29-.06,4.57-.09,6.86-.09,1,0,1.28.27,1.3,1.11.07,2.86.1,5.72.13,8.58a1,1,0,0,1-1,1.08c-2.48,0-4.95.09-7.43.12a.84.84,0,0,1-.89-.89c0-1.53,0-3.05,0-4.57Z"/><path class="cls-8" d="M385,516.52c0-1.34,0-2.68,0-4,0-.63.24-1.12,1-1.15,2.39-.08,4.77-.19,7.16-.24.91,0,1.23.29,1.27,1.17q.15,4.15.23,8.31c0,1-.2,1.26-1.11,1.29q-3.57.12-7.16.15c-.89,0-1.17-.27-1.19-1.21,0-1.43,0-2.87,0-4.3Z"/><path class="cls-11" d="M244.62,557.38c-.2,1.16.37,2.63-.45,3.94a14.15,14.15,0,0,1-3.95.13c-3.37,0-3.06.12-3-3.13,0-1.43.06-2.86.1-4.29a1,1,0,0,1,1.07-1c.76,0,1.52,0,2.28,0C245.23,553.21,244.68,552.29,244.62,557.38Z"/><path class="cls-12" d="M253.83,547.68c0,.76,0,1.52,0,2.28-.05,1.74-.13,1.83-1.73,1.85s-3,0-4.56-.08c-.65,0-1.14-.3-1.13-1,0-2.19.06-4.37.13-6.56a.84.84,0,0,1,.92-.86c1.81,0,3.61.1,5.41.16a1,1,0,0,1,1,1.07v3.14Z"/><path class="cls-13" d="M244.67,547.41c0,1.15,0,2.3,0,3.44a.72.72,0,0,1-.72.74c-1.91,0-3.82-.09-5.73-.18a.87.87,0,0,1-.84-1q.1-3.3.26-6.6a.69.69,0,0,1,.75-.68c1.92,0,3.83.05,5.74.09a.71.71,0,0,1,.73.72c0,1.15,0,2.3,0,3.44Z"/><path class="cls-14" d="M253.24,561.59h-5.92a1,1,0,0,1-1.08-1c0-2.19.08-4.39.15-6.58,0-.56.44-.82,1-.81,1.14,0,2.29,0,3.43.13,3.22.25,3-.43,2.86,3.28A18.63,18.63,0,0,1,253.24,561.59Z"/><path class="cls-2" d="M499.66,980.32A1.9,1.9,0,0,1,498,981.5,2.17,2.17,0,0,1,499.66,980.32Z"/><path class="cls-2" d="M503.12,977.44a1.59,1.59,0,0,1-1.1.62A1.59,1.59,0,0,1,503.12,977.44Z"/><path class="cls-2" d="M504.28,976.3l-.59.59Z"/><path class="cls-2" d="M503.7,976.88l-.59.58Z"/><path class="cls-2" d="M502,978.09l-.57.54Z"/><path class="cls-2" d="M501.41,978.63l-.59.57Z"/><path class="cls-2" d="M500.83,979.19l-.59.58Z"/><path class="cls-2" d="M500.25,979.76l-.6.58Z"/><path class="cls-2" d="M498,981.5l-.59.57Z"/><path class="cls-10" d="M624.55,554.09c-1.13-.24-3,.74-4-.46-.93-1-.28-2.76-.34-4.18,0-1.25,0-2.5,0-3.74a1,1,0,0,1,1.09-1.07c2.4,0,4.79,0,7.19,0,.95,0,1.23.3,1.24,1.2,0,2.39,0,4.79,0,7.19a1,1,0,0,1-1.08,1.06C627.39,554.1,626.14,554.09,624.55,554.09Z"/><path class="cls-10" d="M625.8,533.33c4.67.08,3.85-.71,3.94,4.38q0,1.29,0,2.58c0,2.44,0,2.45-2.6,2.47-1.91,0-3.82,0-5.72,0-.88,0-1.22-.36-1.23-1.22,0-2.29,0-4.59,0-6.88,0-1,.29-1.26,1.44-1.29S624.11,533.33,625.8,533.33Z"/><path class="cls-10" d="M618.31,549.7c-.26,1.2.49,2.77-.42,4.19a12.72,12.72,0,0,1-4.26.2c-1.5,0-3,.39-4.5-.37-.49-1.4-.18-2.84-.24-4.27,0-1.24,0-2.49,0-3.74a1,1,0,0,1,1.08-1.07c2.39,0,4.79,0,7.19,0,.85,0,1.08.33,1.11,1.32C618.33,547.12,618.31,548.27,618.31,549.7Z"/><path class="cls-15" d="M613.25,542.74c-1.15-.24-2.72.49-4.13-.4-.46-1.4-.17-2.84-.23-4.26,0-1.05,0-2.1,0-3.15,0-1.41.17-1.57,1.44-1.58,2.29,0,4.59,0,6.88,0a1,1,0,0,1,1.07,1.06c0,2.39,0,4.79,0,7.18,0,.86-.31,1.11-1.27,1.14C615.87,542.77,614.72,542.74,613.25,542.74Z"/><path class="cls-16" d="M801.27,519.86c-.31,3.73-.64,7.72-1,11.71-.09,1-.32,1.14-1.26,1.11l-.57,0c-2.88-.33-2.87-.1-2.56-3,.34-3.32.53-6.65.79-10l.09-1.43c.06-.72.5-1,1.16-.93l1.43.06C801.34,517.49,801.37,517.53,801.27,519.86Z"/><path class="cls-13" d="M802.1,532.77a3.9,3.9,0,0,1-.17-.84c.33-4.38.68-8.75,1-13.13,0-.67.33-1.06,1.06-1s1.53,0,2.28.12c1.05.1,1.28.38,1.2,1.49q-.5,6.29-1,12.56c-.09,1.08-.34,1.27-1.48,1.17C804.06,533,803.12,532.89,802.1,532.77Z"/><path class="cls-13" d="M797.29,511.48c.23-3.15.44-6.3.69-9.45.11-1.35.3-1.56,1.52-1.5,3.33.16,3.19-.16,3,3.19s-.48,6.68-.74,10a8.4,8.4,0,0,1-.2,1.41.89.89,0,0,1-1.06.73c-4-.49-3.44.23-3.24-3.55C797.26,512.05,797.27,511.77,797.29,511.48Z"/><path class="cls-17" d="M900.17,523.61c0,1.23,0,2.47,0,3.71a.72.72,0,0,1-.72.74c-1.91,0-3.81,0-5.71,0a.72.72,0,0,1-.74-.73c0-2.47,0-5,0-7.43a.72.72,0,0,1,.72-.74c1.9,0,3.8,0,5.7,0,.57,0,.8.49.81,1,0,1.15,0,2.29,0,3.44Z"/><path class="cls-18" d="M892.92,512.59c.06-5.13-.74-4.4,4.35-4.46,3.07,0,3-.12,3,3,0,1.64,0,3.27,0,4.9a1,1,0,0,1-1,1.12c-1.72,0-3.45,0-5.17,0a1,1,0,0,1-1.08-1.07C892.91,514.9,892.92,513.74,892.92,512.59Z"/><path class="cls-19" d="M891,523.68v.57c0,4.46.45,3.85-4.05,3.9-.67,0-1.34,0-2,0-1.07,0-1.29-.25-1.31-1.41q0-3.16,0-6.31c0-1.07.28-1.29,1.42-1.32,1.52,0,3.05,0,4.58,0,1.06,0,1.29.28,1.33,1.42s0,2.11,0,3.16Z"/><path class="cls-20" d="M891,512.65c0,1.14,0,2.29,0,3.43a1,1,0,0,1-1.1,1c-1.72,0-3.43,0-5.14,0a1,1,0,0,1-1.06-1.07q0-3.42,0-6.85a1,1,0,0,1,1.08-1.05c1.72,0,3.43,0,5.14,0a1,1,0,0,1,1.09,1.07C891,510.37,891,511.51,891,512.65Z"/><path class="cls-21" d="M808.75,502.86c-.37,4.43-.68,8.35-1,12.26-.08,1-.29,1.24-1.2,1.16-3.64-.3-3.55.36-3.16-3.49.35-3.53.55-7.07.83-10.6.08-1,.31-1.17,1.23-1.17.39,0,.77,0,1.15.06C808.84,501.2,808.84,501.2,808.75,502.86Z"/><path class="cls-10" d="M925.32,479.33c.35-.12.53.15.7.36q4.11,5,8.2,10c.12.15.23.31.34.47.33.5.16,1-.41,1.06-2.27.34-4.55.66-6.82,1-.54.07-1-.12-1-.7q-.63-5.87-1.21-11.72C925.08,479.63,925.24,479.48,925.32,479.33Z"/><path class="cls-22" d="M922.44,479.52a1.91,1.91,0,0,1,.78,1.55q.53,5.15,1,10.29c.09.94-.12,1.31-1,1.44-2.17.34-4.35.62-6.54.89-.72.08-1-.4-.65-1.11C918.15,488.28,920.25,484,922.44,479.52Z"/><path class="cls-17" d="M718,498.87a12.41,12.41,0,0,1-1.38,0c-6.37-1-5.56.31-4.76-5.94.12-.95.22-1.9.36-2.84,0-.27.08-.6.44-.66s.49.16.63.41c1.27,2.24,2.56,4.47,3.81,6.72A4.58,4.58,0,0,1,718,498.87Z"/><path class="cls-23" d="M702.25,496.89a66.74,66.74,0,0,1,8.55-7.9l-1.08,7.84a1,1,0,0,1-1.22.87C706.62,497.48,704.74,497.22,702.25,496.89Z"/><path class="cls-2" d="M978.05,978a1.61,1.61,0,0,1-.55-1.18A1.68,1.68,0,0,1,978.05,978Z"/><path class="cls-2" d="M978.65,979.77a1.54,1.54,0,0,1-.56-1.2A1.76,1.76,0,0,1,978.65,979.77Z"/><path class="cls-2" d="M979.19,980.92a1.66,1.66,0,0,1-.55-1.15A1.55,1.55,0,0,1,979.19,980.92Z"/><path class="cls-24" d="M143.9,194.69c.21-.42.47-.83.64-1.27a147.71,147.71,0,0,1,6.61-14.9,8,8,0,0,0,.36-1.08,11.35,11.35,0,0,0,.81-1.15,145.51,145.51,0,0,1,10.31-16.43,16.43,16.43,0,0,0,.86-1.46h0c.47-.54.67-1.27,1.28-1.7a13.33,13.33,0,0,0,1-1,147.59,147.59,0,0,1,12.37-13.84,4.79,4.79,0,0,0,.49-.69c.52-.42,1-.81,1.54-1.26a143.9,143.9,0,0,1,25.28-19,16.52,16.52,0,0,0,1.37-1,6.68,6.68,0,0,0,2.31-1.11,142,142,0,0,1,43.95-15.52,144.33,144.33,0,0,1,36.07-1.7,134,134,0,0,1,24.9,4.21c.64.17,1.31.22,2,.33,1.84-.62,3.59-.07,5.32.48a140.41,140.41,0,0,1,22.55,9.34,160,160,0,0,1,17.33,10.72c5.53,4.14,11.1,8.2,15.84,13.28a117.56,117.56,0,0,1,18.14,21,124.7,124.7,0,0,1,14.95,26.85c2.84,6,4.67,12.3,6.55,18.61.18.72.38,1.44.54,2.18a3.15,3.15,0,0,1,.07.92A94.91,94.91,0,0,1,420.25,225a127,127,0,0,1,1.26,21.61,32.24,32.24,0,0,1-.25,4.28c-.5,7.52-1,15.05-3,22.37a108.51,108.51,0,0,1-5.69,19.83,121.5,121.5,0,0,1-11.11,23.27,129.08,129.08,0,0,1-16.33,22.52c-.77.86-1.59,1.66-2.29,2.58a109,109,0,0,1-21.19,18.33,13.17,13.17,0,0,0-2.6,2.23c-9.45,6.61-19.78,11.55-30.37,16-1.91.8-4,.41-5.89.92a4.85,4.85,0,0,0-1.94.43,140.92,140.92,0,0,1-27.53,5.79,145.81,145.81,0,0,1-27,.34,141.29,141.29,0,0,1-30.43-5.81,11.22,11.22,0,0,0-1.41-.24c-1.06-.41-2.11-.85-3.18-1.23a145,145,0,0,1-28.85-13.79,5.59,5.59,0,0,0-2-1.08,10.21,10.21,0,0,0-1.08-.91A144,144,0,0,1,166.2,332a2,2,0,0,1,.48-2.37c3-3.52,6.37-6.49,11.33-6.47,2.22,0,2.82-.91,2.72-2.94-.3-6.46,2.49-11.46,7.52-15.33.23-.17.43-.38.64-.57,2.19-2,2.2-2-.1-3.74a16.5,16.5,0,0,1-3.41-3.47c-3-4.11-2.62-8.64-1.71-13.19-2.77,10.09-7.38,19-16,25.48a12.82,12.82,0,0,1-8,2.75,4.42,4.42,0,0,0-4.46,2.38c-1.57.64-2.26-.53-2.91-1.53q-1.54-2.39-2.85-4.89a4.68,4.68,0,0,1-.37-.7,5.38,5.38,0,0,1-.28-.7c-.13-.32-.24-.66-.36-1a4.52,4.52,0,0,1-.21-.62c-.1-.29-.18-.6-.28-.89a5.42,5.42,0,0,1-.22-.56,8.86,8.86,0,0,0-.4-.82,6.38,6.38,0,0,1-.32-.57,5.5,5.5,0,0,1-.47-.94c-.08-.25-.17-.49-.27-.73a91.51,91.51,0,0,1-5-12.73,4.79,4.79,0,0,1-.12-3.89c-.6-2.51-1.21-5-1.79-7.53a124.07,124.07,0,0,1-2.42-13,19,19,0,0,0-.46-1.95,13.26,13.26,0,0,0,0-1.41c-.64-5.66-.89-11.35-1-17a2.71,2.71,0,0,0-.12-.55c.12-1.71.3-3.41.36-5.12a124.75,124.75,0,0,1,1.26-13.92c.11-.75.08-1.52.12-2.28a46.45,46.45,0,0,0,1.33-6.41,158.77,158.77,0,0,1,5.1-18.44C143.66,195.8,143.76,195.24,143.9,194.69Z"/><path d="M893.42,377.86c-1.31-1.43-3.13-1.78-4.87-2.27a.93.93,0,0,1-.75-1.28,14.58,14.58,0,0,0,.46-6.82,77.88,77.88,0,0,0-5.28-9.22c-.37-1.07-1.33-1.91-1.27-3.17a1.4,1.4,0,0,1,1-.81,4.89,4.89,0,0,1,3.26.89c6.2,3.7,12.52,3.41,19,.82,1.63-.66,3.5-1.63,4.64.84-.23,3.23-.69,6.43-.64,9.69a26.59,26.59,0,0,0,3,11.55c.4.81.68,2.08,1.81,1.94s1.33-1.27,1.72-2.13a32.46,32.46,0,0,1,1.55-3.7c.49-.8,1-1.83,2.17-1.44.94.33.36,1.34.37,2.05s.24,1.35-.29,1.91c-.47.85-.59,1.6.39,2.21.8.5,1.55,1.08,2.41,1.68,1.49-.61,2.17-2.39,3.77-2.86.41.38.24.74.06,1.07a13.25,13.25,0,0,1-1.25,2.25,21,21,0,0,0-3.34,6.63c.23.77,1,.8,1.58,1a15.64,15.64,0,0,0,8.5-.15,21.53,21.53,0,0,0,12-8.29,10.89,10.89,0,0,1,.85-1.14.4.4,0,0,1,.69.1c.3,1,.52,2,.76,3.06a47.68,47.68,0,0,0,2.75,8.74,17.82,17.82,0,0,0,4.22,6.4l0,0a2.56,2.56,0,0,0,.53.56c1.66,2.25,4,3.67,6.21,5.32.06,1.05-.58.73-1.14.6-1-.18-2-.39-3.08-.52A11.89,11.89,0,0,0,943,409.55a.82.82,0,0,1-1.17,0,9.57,9.57,0,0,0-3.76-3.81,7.82,7.82,0,0,0-9.14.17,8.31,8.31,0,0,0-3.23,3.54c-.42.36-.82.58-1-.18a.21.21,0,0,0-.05-.31c-.55-.55-.16-1.36-.54-2a.31.31,0,0,0-.12-.38c-.17-.22-.41-.39-.46-.69l.09.09c-.51-.21-.38-.82-.71-1.14h0c-3.76-2.29-7.69-1.62-11.64-.67h.06a1,1,0,0,1-.69.63l.07-.11a5.83,5.83,0,0,1-1.22,1.26l.1-.07a1.2,1.2,0,0,1-.63.68l.07-.12c-1.53-.41-.88-1.3-.47-2.13a6.11,6.11,0,0,0-.08-4.64c-.5-.55-.14-1.34-.5-1.93a.33.33,0,0,0-.11-.38c-.32-.32-.18-.85-.53-1.15h0c-2-4.33-4.72-5.52-9.93-4.29a9.89,9.89,0,0,1,.38-3.31,11.91,11.91,0,0,0-.9-6.72A7.85,7.85,0,0,0,893.42,377.86Z"/><path d="M502.53,379c-1.36-1.43-3.21-2-5-2.66-1.28-.51-1.36-.58-1.09-1.86a26.45,26.45,0,0,0,.35-7.94,10.14,10.14,0,0,0-2.2-6,8.6,8.6,0,0,0-2.06-1c-1.72-.66-2.58-2.19-1.64-3.67,2.76-4.31,2.2-8.72,1-13.24a2.56,2.56,0,0,1,2.42-2.72c3.12-.3,5.7-1.38,7.47-4.11a2.2,2.2,0,0,1,2-.94,1.63,1.63,0,0,1,1.13.83c.76,1.87-.48,3.7-.11,5.57a22.45,22.45,0,0,0,1.78,13.84,4.22,4.22,0,0,0,.47.56,3.79,3.79,0,0,1,.51.47c.08.08.15.17.23.24a5.1,5.1,0,0,1,.47.46,2.41,2.41,0,0,1,.24.21,4.8,4.8,0,0,1,.54.38,5.13,5.13,0,0,1,.57.38,4.12,4.12,0,0,1,.79.77,3.13,3.13,0,0,1,.35.71,5.43,5.43,0,0,1,.08,1.61c-1.78,5.33-.22,9.76,3.62,13.58.53.51,1,1.31,1.9,1s.53-1.14.66-1.76c.71-3.19,1.31-3.43,4-1.48a4.11,4.11,0,0,0,1.82.81c3.67.54,3.67.54,3.37,4.3a6.43,6.43,0,0,0,6-3.94c2-4.19,2.09-4.16,6.8-3.32,4.91.88,9-.75,12.57-4.09,2-1.84,3.39-4.47,6.33-5.17a1.32,1.32,0,0,1,1,.81,2.85,2.85,0,0,1-1.66,3.48,33.17,33.17,0,0,0-3.29,9.63,8.67,8.67,0,0,0,.17,3.62c-.71.85-2,.34-2.56,1.18-2.68,1.06-3.82,3.35-4.62,5.87-.29.9-.42,1.85-.63,2.79-.76.34-1.29-.19-1.88-.41a8.92,8.92,0,0,0-10.62,2.72c-1,1.15-1.75,2.48-2.63,3.75-3.59-5.2-8.86-6.1-12.75-1.79-2-3.09-4.09-3.83-7.55-2.61-.89.31-1.73.76-2.76,1.22a7,7,0,0,1-.18-2.52A11.2,11.2,0,0,0,502.53,379Z"/><path d="M747.78,403.82a5.6,5.6,0,0,0,1.11,2.83c.37.63.76,1.25,1.13,1.86l-1.7,1.59c-1.38.9-1.83,2.37-2.22,3.83a13.48,13.48,0,0,0-.29,6.22c.14.65.23,1.31.32,2,.18,1.37.19,1.4-1,1.89a13.38,13.38,0,0,0-4.79,3c-1.06,1.09-2.12,2.2-2.29,3.83-1,1.45-.45,3.16-.76,4.72-.64.41-1.06-.17-1.56-.29s-.91-.32-1.38-.39c-2.23-.31-4.24-.07-5.21,2.4-3.9-3.1-6-2.79-10.27,1.45-4.69-5.69-7.18-6.5-11.92-3.86-.58-.35-.46-1-.58-1.51-.71-3-2.09-5.46-5.43-6.17a.85.85,0,0,1-.71-1,4.73,4.73,0,0,0-.19-2.24c-.63-.66.06-1.64-.57-2.3h0c-.54-.45,0-1.26-.59-1.71h0c-.34-.34-.24-.86-.51-1.24h0c-.14-1.39-1-2.51-1.38-3.83-.15-.63.13-.81.7-.68l2.48,2.39a20.62,20.62,0,0,0,3.61,2.84,11.17,11.17,0,0,0,8.84,1.31l1.38-.37c1.48-.41,1.58-.44,2,1,1.14,3.46,3.63,5,7.1,5.27a.89.89,0,0,0,.88-1.34c-.28-.6-1-1-1-1.72a1.41,1.41,0,0,1,.16-.81c.2-.25.5-.05.7.13.47.43,1,.66,1.51.18.77-.66,2.11-.61,2.35-1.92,0-.1.3-.23.45-.21a.58.58,0,0,1,.5.6,12.2,12.2,0,0,1,0,1.71,3.79,3.79,0,0,0,.62,1.88c.17.33.45.3.72.23a1.69,1.69,0,0,0,.52-.26,13.09,13.09,0,0,0,4.8-5.95,9.08,9.08,0,0,0,0-7.26c-.53-1.23-.48-1.31.64-2.06,2.72-1.83,3.72-4.48,3.75-7.63a8.4,8.4,0,0,0,.23-4.25,41.17,41.17,0,0,0-1.35-7.39c.69-.18.81.35,1,.65.42.53.78,1.09,1.19,1.62a7,7,0,0,0,5.15,2.8c.48,0,1,.06,1.44.08.77,0,.94.5.86,1.16a3.75,3.75,0,0,0,0,.58h0c-.65.65.09,1.66-.61,2.3v0A6.71,6.71,0,0,0,747.78,403.82Z"/><path class="cls-25" d="M697.69,414.16l-.7.68c-.28-.47-.59-.93-.84-1.42a.57.57,0,0,1,.05-.51c.26-.27.52,0,.67.14A12.71,12.71,0,0,1,697.69,414.16Z"/><path d="M154.64,314.68c.27-1.3.55-2.59.8-3.8.7-.42,1.22,0,1.76.07a13,13,0,0,0,8.06-1.47,23.28,23.28,0,0,0,6.06-4.79,50.85,50.85,0,0,0,8.9-14,61.5,61.5,0,0,0,2.83-7.53,3.74,3.74,0,0,1,.95-1.82c0,1,.05,1.92,0,2.82a43.48,43.48,0,0,0,.13,6,12.19,12.19,0,0,0,4.73,8.87c1.34,1.07,2.78,2,4.17,3,0,.68-.61.93-1,1.28-1.4,1.17-2.83,2.3-4.2,3.49a16.56,16.56,0,0,0-6,13.15v4.23c-.62.43-1.17.1-1.7,0a11.06,11.06,0,0,0-7.17,1.53,19.55,19.55,0,0,0-6.68,6.2,30,30,0,0,0-5.1,8.59c-.3.7-.56,1.43-.87,2.13-.46,1.05-.54,1.06-1.76.77-1.39-.32-2.79-.66-4.2-.93-7.31-1.37-16.72.89-21.51,10.16-.18.34-.39.65-.56.94-.72,0-.77-.52-.93-.94a12.12,12.12,0,0,0-5.6-6.32c-2.62-1.48-5.25-1.76-7.69.48a5.07,5.07,0,0,1-.83.44c-.25-1,.12-2-.3-2.86a5.48,5.48,0,0,0-2-4,11.59,11.59,0,0,0-12.46-2.84c-.81.26-1.59.59-2.39.88-.08,0-.19,0-.3-.05a6.49,6.49,0,0,1-.07-2.84,18.82,18.82,0,0,0-.73-6.55c-1.35-4.1-3.65-7.36-8-8.77-1.59-1.06-3.42-1.12-5.22-1.32-.78-.08-1-.48-.57-1.17a16.38,16.38,0,0,0,2.34-9.9,11.41,11.41,0,0,0-1.87-5.66,4.66,4.66,0,0,0-2.56-2.2,1.18,1.18,0,0,1,.42-1.25,12.78,12.78,0,0,0,3.65-5.65,30.94,30.94,0,0,0,2.11-7.91c.56-.71-.06-1.68.52-2.38,0-.19.07-.37.11-.56a50.21,50.21,0,0,0,1.7-9.17.6.6,0,0,1,1,0,98.27,98.27,0,0,0,2,11.31,3.91,3.91,0,0,0,.39.76c1.53.67,1.67,2.23,2.15,3.52a22.12,22.12,0,0,0,10.09,11.91,6.25,6.25,0,0,1,.6.4c.3.16.58.36.89.51a3.35,3.35,0,0,1,.61.2c.3.1.59.22.89.33a4.14,4.14,0,0,1,.59.21c.4.14.8.28,1.2.39a3.48,3.48,0,0,1,.65.19c.54.2,1.09.38,1.66.54a3,3,0,0,1,.67.39,2.71,2.71,0,0,1,.81,1.38,2.89,2.89,0,0,1,.07.83,9,9,0,0,1-.27,1.62c-2,5-.67,9.36,2.77,13.23.64.71,1.37,1.6,2.37,1.4s.63-1.44.8-2.22a6.27,6.27,0,0,1,.85-2.41c1.08-1.5,2.3-1.5,3.42,0a5.06,5.06,0,0,0,6.43,1.33c.85-.47,1.67-1.16,2.59-.37s.69,1.7.49,2.68a7.63,7.63,0,0,1-1.9,3.48c-.74.85-1.29,1.84-.76,2.87s1.68.49,2.59.39c5.7-.65,10.72-2.66,14.65-7a18.54,18.54,0,0,0,2.57-3.78C153,316.15,153.33,315,154.64,314.68Z"/><path d="M180.88,165.8l9.67,1.42a82.28,82.28,0,0,0,14.62,1,60,60,0,0,0,21.76-4.86,138.58,138.58,0,0,0,15.87-8.11c.82-.47,1.65-.92,2.48-1.38.18.25.37.4.35.51a28,28,0,0,0,1.82,14.4,52.47,52.47,0,0,0,27.86,29.95c.26.12.53.23.8.33,1.16.46,1.45.31,1.35-.83a10.63,10.63,0,0,1,1.38-6.92,4.09,4.09,0,0,0,.4-2.51,35.82,35.82,0,0,1,1.22-9.1,16.67,16.67,0,0,1,.64-1.84c.63.16.82.59,1,1a21.43,21.43,0,0,1,1.56,5.82c.13.66.12,1.35.31,2,.45,1.52.26,1.71,2,1.9a17,17,0,0,1,6.6,1.87,1.26,1.26,0,0,0,1.77-.34c.79-1,1.57-1.94,2.31-2.93a18.56,18.56,0,0,1,3.7-4c.29-.22.61-.6,1-.39.55.27.31.83.23,1.26a30.77,30.77,0,0,1-3.44,9.71,5.65,5.65,0,0,0-1,4,7.89,7.89,0,0,1-.71,4.49,1.64,1.64,0,0,0-.22,1.45,30.27,30.27,0,0,0,7.67.1,53.13,53.13,0,0,0,33.42-15.65,30.24,30.24,0,0,0,7.8-12.6,7.66,7.66,0,0,1,.34-.8c.87,0,1.05.72,1.4,1.2a154.83,154.83,0,0,0,11.67,14.25,60.25,60.25,0,0,0,20.85,14.52,104.53,104.53,0,0,0,13.08,4.37c3.41.9,6.84,1.7,10.34,2.56-.28.64-.79.48-1.17.46a88.17,88.17,0,0,0-11.49.45,46.56,46.56,0,0,0-13.12,3.08c-6.7,2.75-11.65,7.29-14.29,14.15-.14.35-.31.68-.45,1-.94.08-1.5-.52-2.16-.87a37.85,37.85,0,0,0-12.69-4.42,27.16,27.16,0,0,0-11.69.63,21.21,21.21,0,0,0-13.5,11.27c-.39.77-.76,1.54-1.13,2.31-.78,0-.87-.69-1.14-1.12a19.62,19.62,0,0,0-12.5-8.57,24.72,24.72,0,0,0-19.8,3.58,22,22,0,0,0-6.9,7.23c-.42.71-.87,1.41-1.49,2.42-.22-1.24-.4-2.06-.52-2.9-1-7.08-4.7-12.46-10.5-16.47a24.69,24.69,0,0,0-11.78-4.26,19.25,19.25,0,0,0-11.87,2.65c-.33.2-.65.41-1,.62l-.91.55c-.74-.25-.51-.81-.53-1.22a27.16,27.16,0,0,0-.77-5.69,21.42,21.42,0,0,0-9.69-13.09,31.38,31.38,0,0,0-15.24-4.63,41.7,41.7,0,0,0-8.23.35c-.57-.54-.42-1.14-.4-1.69.25-7-2.41-12.9-7.17-17.93a46.08,46.08,0,0,0-9.49-7.42,96.69,96.69,0,0,0-11.59-5.73C179.66,165.27,180.32,165.66,180.88,165.8Z"/><path class="cls-26" d="M177.92,165.82a2.38,2.38,0,0,1-1.77-.92,2.53,2.53,0,0,1,2.39.32C178.53,165.62,178.14,165.63,177.92,165.82Z"/><path class="cls-27" d="M177.92,165.82l.62-.6a3.78,3.78,0,0,1,2.34.58l-1.21.56Z"/><path class="cls-28" d="M503.67,335.2a8.32,8.32,0,0,1,.44-1,.62.62,0,0,1,.46-.26c.1,0,.26.24.28.38a1.94,1.94,0,0,1-.48,1.56Z"/></g></svg>